<svg width="112" height="24" viewBox="0 0 112 24" fill="none" xmlns="http://www.w3.org/2000/svg">
<path d="M27.128 0.799999C26.9787 4.40533 26.904 8.26667 26.904 12.384C26.904 16.5227 26.9787 20.3947 27.128 24H15.672L7.928 6.528L8.504 24H0.28C0.450667 19.8613 0.536 15.9893 0.536 12.384C0.536 8.8 0.450667 4.93867 0.28 0.799999H12.056L19.832 18.752L19.288 0.799999H27.128ZM49.8783 24C49.4729 22.784 48.9289 21.2587 48.2463 19.424H38.0383L36.4383 24H28.4062L37.3663 0.768H49.1423L58.1663 24H49.8783ZM46.4223 14.432C45.6116 12.192 44.7796 9.952 43.9263 7.712L43.1583 5.632C42.4116 7.57333 41.3129 10.5067 39.8623 14.432H46.4223ZM84.8338 6.752H67.4258V10.112C68.5138 10.1333 70.1458 10.144 72.3218 10.144C76.0764 10.144 79.8951 10.08 83.7778 9.952V16.224C79.8951 16.0747 75.7991 16 71.4898 16C69.6978 16 68.3431 16.0107 67.4258 16.032V24H59.8738C60.0444 19.8613 60.1298 15.9893 60.1298 12.384C60.1298 8.77867 60.0444 4.90667 59.8738 0.768H84.8338V6.752ZM102.619 12.096L111.963 24H102.715L98.1068 17.728L93.4668 24H84.2188L93.5628 12.096L84.5388 0.768H93.7868L98.1068 6.528L102.395 0.768H111.643L102.619 12.096Z" fill="white"/>
</svg>
